<?xml version="1.0" encoding="iso-8859-1"?>
<!-- Generator: Adobe Illustrator 19.0.0, SVG Export Plug-In . SVG Version: 6.00 Build 0)  -->
<svg version="1.1" id="Capa_1" xmlns="http://www.w3.org/2000/svg" xmlns:xlink="http://www.w3.org/1999/xlink" x="0px" y="0px"
	 viewBox="0 0 512 512" style="enable-background:new 0 0 512 512;" xml:space="preserve">
<g>
	<g>
		<path d="M405.987,241H269.369c-8.284,0-15,6.716-15,15v136.63c0,8.284,6.716,15,15,15h136.618c8.284,0,15-6.716,15-15V256
			C420.987,247.716,414.271,241,405.987,241z M390.987,377.63H284.369V271h106.618V377.63z"/>
	</g>
</g>
<g>
	<g>
		<path d="M487.997,277.178c9.889,7.42,24.003,0.314,24.003-11.998V195.8c0-4.721-2.222-9.166-5.999-11.999l-50.018-37.524V30
			c8.284-0.001,14.999-6.716,14.999-15s-6.716-15-15-15c-9.109,0-75.323,0-89.992,0c-8.284,0-15,6.716-15,15s6.715,14.999,14.999,15
			v48.763L265.001,3.001C259.667-1,252.333-1,246.999,3.001l-241,180.8C2.222,186.634,0,191.079,0,195.8v69.38
			c0,12.329,14.125,19.41,24.003,11.998L41,264.424V431H15c-8.284,0-15,6.716-15,15v51c0,8.284,6.716,15,15,15h482
			c8.284,0,15-6.716,15-15v-51c0-8.284-6.716-15-15-15h-26V264.424L487.997,277.178z M395.989,30h29.995v93.749l-29.995-22.498V30z
			 M482,461v21H30v-21C34.7,461,471.435,461,482,461z M206.004,241h-99.991c-8.284,0-15,6.716-15,15v175H71V241.913l185-138.791
			l185,138.792V431H221.004V256C221.004,247.716,214.288,241,206.004,241z M191.004,271v160h-69.991V271H191.004z M265.001,72.372
			c-5.281-3.961-12.665-4.004-18.002,0C231.237,84.195,39.746,227.86,30,235.171v-31.872L256,33.752l226,169.547v31.873
			C472.25,227.857,280.753,84.188,265.001,72.372z"/>
	</g>
</g>
<g>
</g>
<g>
</g>
<g>
</g>
<g>
</g>
<g>
</g>
<g>
</g>
<g>
</g>
<g>
</g>
<g>
</g>
<g>
</g>
<g>
</g>
<g>
</g>
<g>
</g>
<g>
</g>
<g>
</g>
</svg>
